<svg version="1.1" id="Layer_1" xmlns="http://www.w3.org/2000/svg" xmlns:xlink="http://www.w3.org/1999/xlink" x="0px" y="5px"
	 width="100%" viewBox="0 0 400 200" enable-background="new 0 0 400 200" xml:space="preserve">
<path fill="#000000" opacity="1.000000" stroke="none" 
	d="
M297.000000,201.000000 
	C198.041046,201.000000 99.582077,201.000000 1.061558,201.000000 
	C1.061558,134.402191 1.061558,67.804321 1.061558,1.103222 
	C134.333298,1.103222 267.666626,1.103222 400.978333,1.103222 
	C400.978333,67.751129 400.978333,134.375565 400.978333,201.000000 
	C366.471100,201.000000 331.985535,201.000000 297.000000,201.000000 
M231.264938,147.638046 
	C238.539902,148.570572 245.412323,148.176941 251.463699,143.118683 y
	C255.121613,140.061096 259.098267,137.269852 263.261353,134.950729 
	C286.528992,121.989136 312.346558,119.805542 338.121521,118.110344 
	C353.860687,117.075203 369.684326,117.341568 385.467712,116.934326 
	C387.101440,116.892174 388.719513,116.242188 391.724518,115.561897 
	C385.302246,111.285606 380.248077,107.586388 374.868225,104.444923 
	C370.647552,101.980324 368.135712,98.896309 368.477386,93.888519 
	C368.599213,92.102722 368.410828,90.154831 369.067047,88.572479 
	C371.155640,83.535896 368.105530,81.293472 364.458618,79.242966 
	C363.302368,78.592842 362.058685,78.086693 360.944824,77.374260 
	C329.299011,57.133389 297.697723,36.822575 265.993835,16.673233 
	C261.096069,13.560480 256.441986,9.635051 249.643341,11.147108 
	C244.358353,12.322520 238.846390,12.798842 233.418427,12.940997 
	C223.094833,13.211363 212.747253,12.714927 202.432220,13.116763 
	C194.023636,13.444330 185.527832,13.987607 177.285416,15.560431 
	C164.416428,18.016096 153.491455,24.352425 145.247620,35.063107 
	C128.421844,24.487076 109.779602,23.718203 91.189644,25.267204 
	C67.235703,27.263159 45.229694,35.943409 24.601040,48.158592 
	C21.925283,49.743031 21.262165,51.857395 20.837852,54.966370 
	C19.754745,62.902447 22.672249,72.875206 11.521206,76.561218 
	C11.326461,76.625595 11.279799,77.137955 11.167514,77.445854 
	C11.217932,77.769882 11.168395,78.160088 11.332919,78.408562 
	C35.638325,115.115150 59.962868,151.809067 84.271019,188.513855 
	C85.831200,190.869690 87.568558,191.229050 90.179459,189.970383 
	C100.330505,185.076782 110.647369,180.524918 120.768608,175.572220 
	C144.716553,163.853592 168.182617,150.879135 194.983170,146.552383 
	C206.817444,144.641830 218.780884,141.395081 231.264938,147.638046 
z"/>
<path fill="#081F77" opacity="1.000000" stroke="none" 
	d="
M230.888550,147.433350 
	C218.780884,141.395081 206.817444,144.641830 194.983170,146.552383 
	C168.182617,150.879135 144.716553,163.853592 120.768608,175.572220 
	C110.647369,180.524918 100.330505,185.076782 90.179459,189.970383 
	C87.568558,191.229050 85.831200,190.869690 84.271019,188.513855 
	C59.962868,151.809067 35.638325,115.115150 11.332919,78.408562 
	C11.168395,78.160088 11.217932,77.769882 11.165777,77.443573 
	C11.279799,77.137955 11.326461,76.625595 11.521206,76.561218 
	C22.672249,72.875206 19.754745,62.902447 20.837852,54.966370 
	C21.262165,51.857395 21.925283,49.743031 24.601040,48.158592 
	C45.229694,35.943409 67.235703,27.263159 91.189644,25.267204 
	C109.779602,23.718203 128.421844,24.487076 145.247620,35.063107 
	C153.491455,24.352425 164.416428,18.016096 177.285416,15.560431 
	C185.527832,13.987607 194.023636,13.444330 202.432220,13.116763 
	C212.747253,12.714927 223.094833,13.211363 233.418427,12.940997 
	C238.846390,12.798842 244.358353,12.322520 249.643341,11.147108 
	C256.441986,9.635051 261.096069,13.560480 265.993835,16.673233 
	C297.697723,36.822575 329.299011,57.133389 360.944824,77.374260 
	C362.058685,78.086693 363.302368,78.592842 364.458618,79.242966 
	C368.105530,81.293472 371.155640,83.535896 369.067047,88.572479 
	C368.410828,90.154831 368.599213,92.102722 368.477386,93.888519 
	C368.135712,98.896309 370.647552,101.980324 374.868225,104.444923 
	C380.248077,107.586388 385.302246,111.285606 391.724518,115.561897 
	C388.719513,116.242188 387.101440,116.892174 385.467712,116.934326 
	C369.684326,117.341568 353.860687,117.075203 338.121521,118.110344 
	C312.346558,119.805542 286.528992,121.989136 263.261353,134.950729 
	C259.098267,137.269852 255.121613,140.061096 251.463699,143.118683 
	C245.412323,148.176941 238.539902,148.570572 230.888550,147.433350 
M172.507401,62.989021 
	C165.087967,56.545345 157.478027,50.305916 150.296280,43.607414 
	C140.862366,34.808304 129.460617,30.767357 117.060463,29.039127 
	C94.515587,25.897005 72.958496,30.278294 52.141922,38.609913 
	C43.160126,42.204788 34.633591,46.937122 25.565643,51.314247 
	C48.998634,85.330475 71.702148,118.287766 94.569572,151.483002 
	C135.095306,124.307022 179.158722,110.425629 228.877838,111.992905 
	C209.486267,95.139847 191.260620,79.300064 172.507401,62.989021 
M246.154495,103.676247 
	C282.462341,85.130875 321.489288,81.343819 361.948944,82.805161 
	C361.206543,82.016228 360.949066,81.605316 360.579742,81.369637 
	C326.074554,59.350739 291.567993,37.333965 257.016327,15.388158 
	C255.867508,14.658470 254.239410,14.303807 252.863220,14.369646 
	C237.075577,15.124952 221.293610,15.999144 205.509750,16.834332 
	C197.698715,17.247644 189.837311,17.226568 182.086212,18.142511 
	C168.143356,19.790136 156.783310,26.276663 148.165283,37.637890 
	C149.267059,38.661407 150.093796,39.474648 150.967209,40.234226 
	C174.602341,60.788925 198.232666,81.349190 221.891525,101.876556 
	C225.522690,105.027107 229.096161,110.131065 233.047455,110.492477 
	C236.960861,110.850426 241.318390,106.352867 246.154495,103.676247 
M101.203087,150.763962 
	C99.344933,152.306931 96.167984,153.624893 95.859589,155.432312 
	C94.602196,162.801544 94.222664,170.320587 93.444008,178.587799 
	C98.796021,176.019577 103.100281,173.921448 107.431641,171.880829 
	C143.482239,154.896423 179.098892,136.499252 219.922134,137.190063 
	C223.134476,129.559509 226.182968,122.318184 229.256104,115.018280 
	C183.057648,113.003349 140.694275,125.370995 101.203087,150.763962 
M252.042145,130.774063 
	C253.150238,134.060730 254.643478,131.729370 256.085480,131.086517 
	C266.665680,126.369820 276.937439,120.661995 287.916534,117.203461 
	C308.899658,110.593582 330.813965,109.964622 352.662689,109.743187 
	C357.597015,109.693169 362.532257,109.735840 366.948914,109.735840 
	C366.068817,101.393845 365.278503,93.902985 364.433441,85.893059 
	C319.877167,83.877602 276.271698,88.242256 236.020432,113.016243 
	C243.940979,117.303810 248.509201,123.095253 252.042145,130.774063 
M50.977703,93.527412 
	C42.461033,81.217903 33.944359,68.908394 25.427689,56.598881 
	C23.977732,62.454842 23.140802,67.882271 23.224823,73.295403 
	C23.272415,76.361511 24.123745,79.883072 25.817127,82.384354 
	C45.957645,112.133789 66.323723,141.730530 86.636719,171.363144 
	C87.583763,172.744675 88.587898,174.087051 90.374802,176.574173 
	C91.035011,169.434418 91.899658,163.841766 91.926331,158.245087 
	C91.940132,155.350281 91.153442,151.985077 89.557899,149.623093 
	C76.989174,131.016830 64.137634,112.601601 50.977703,93.527412 
z"/>
<path fill="#FEFEFE" opacity="1.000000" stroke="none" 
	d="
M172.771179,63.224655 
	C191.260620,79.300064 209.486267,95.139847 228.877838,111.992905 
	C179.158722,110.425629 135.095306,124.307022 94.569572,151.483002 
	C71.702148,118.287766 48.998634,85.330475 25.565643,51.314247 
	C34.633591,46.937122 43.160126,42.204788 52.141922,38.609913 
	C72.958496,30.278294 94.515587,25.897005 117.060463,29.039127 
	C129.460617,30.767357 140.862366,34.808304 150.296280,43.607414 
	C157.478027,50.305916 165.087967,56.545345 172.771179,63.224655 
z"/>
<path fill="#FEFEFE" opacity="1.000000" stroke="none" 
	d="
M245.817810,103.830627 
	C241.318390,106.352867 236.960861,110.850426 233.047455,110.492477 
	C229.096161,110.131065 225.522690,105.027107 221.891525,101.876556 
	C198.232666,81.349190 174.602341,60.788925 150.967209,40.234226 
	C150.093796,39.474648 149.267059,38.661407 148.165283,37.637890 
	C156.783310,26.276663 168.143356,19.790136 182.086212,18.142511 
	C189.837311,17.226568 197.698715,17.247644 205.509750,16.834332 
	C221.293610,15.999144 237.075577,15.124952 252.863220,14.369646 
	C254.239410,14.303807 255.867508,14.658470 257.016327,15.388158 
	C291.567993,37.333965 326.074554,59.350739 360.579742,81.369637 
	C360.949066,81.605316 361.206543,82.016228 361.948944,82.805161 
	C321.489288,81.343819 282.462341,85.130875 245.817810,103.830627 
z"/>
<path fill="#FCFCFD" opacity="1.000000" stroke="none" 
	d="
M101.499969,150.542450 
	C140.694275,125.370995 183.057648,113.003349 229.256104,115.018280 
	C226.182968,122.318184 223.134476,129.559509 219.922134,137.190063 
	C179.098892,136.499252 143.482239,154.896423 107.431641,171.880829 
	C103.100281,173.921448 98.796021,176.019577 93.444008,178.587799 
	C94.222664,170.320587 94.602196,162.801544 95.859589,155.432312 
	C96.167984,153.624893 99.344933,152.306931 101.499969,150.542450 
z"/>
<path fill="#FBFCFD" opacity="1.000000" stroke="none" 
	d="
M251.919281,130.400406 
	C248.509201,123.095253 243.940979,117.303810 236.020432,113.016243 
	C276.271698,88.242256 319.877167,83.877602 364.433441,85.893059 
	C365.278503,93.902985 366.068817,101.393845 366.948914,109.735840 
	C362.532257,109.735840 357.597015,109.693169 352.662689,109.743187 
	C330.813965,109.964622 308.899658,110.593582 287.916534,117.203461 
	C276.937439,120.661995 266.665680,126.369820 256.085480,131.086517 
	C254.643478,131.729370 253.150238,134.060730 251.919281,130.400406 
z"/>
<path fill="#FAFBFC" opacity="1.000000" stroke="none" 
	d="
M51.175426,93.827484 
	C64.137634,112.601601 76.989174,131.016830 89.557899,149.623093 
	C91.153442,151.985077 91.940132,155.350281 91.926331,158.245087 
	C91.899658,163.841766 91.035011,169.434418 90.374802,176.574173 
	C88.587898,174.087051 87.583763,172.744675 86.636719,171.363144 
	C66.323723,141.730530 45.957645,112.133789 25.817127,82.384354 
	C24.123745,79.883072 23.272415,76.361511 23.224823,73.295403 
	C23.140802,67.882271 23.977732,62.454842 25.427689,56.598881 
	C33.944359,68.908394 42.461033,81.217903 51.175426,93.827484 
z"/>
</svg>